<svg width="17" height="19" viewBox="0 0 17 19" fill="none" xmlns="http://www.w3.org/2000/svg">
<g clip-path="url(#clip0)">
<path d="M0 9.5034C0 6.74294 0 3.98248 0 1.22201C0 0.634998 0.366878 0.178017 0.945109 0.040551C1.06474 0.0108286 1.19634 0.00711335 1.31996 0.00711335C2.71569 0.00339805 4.11142 0.0219745 5.50715 -0.00031724C6.18907 -0.0114631 6.80718 0.523539 6.7992 1.19229C6.79123 1.90934 6.7992 2.63011 6.7992 3.34716C6.7992 8.13246 6.7992 12.9178 6.80319 17.7031C6.80319 18.0894 6.69951 18.4238 6.39245 18.6913C6.14919 18.9031 5.85409 19.0034 5.52311 19.0034C4.1194 19.0034 2.71968 19.0034 1.31597 19.0034C0.542341 18.9997 0 18.5018 0 17.7885C0 15.028 0 12.2676 0 9.5034Z" fill="#373737"/>
<path d="M16.9999 9.51119C16.9999 12.2605 16.9999 15.0098 16.9999 17.7554C16.9999 18.4019 16.5931 18.8737 15.9431 18.9852C15.8594 19 15.7716 19 15.6839 19C14.2882 19 12.8925 19 11.4967 19C10.7709 19 10.2366 18.5208 10.2047 17.8446C10.2007 17.7963 10.2007 17.7443 10.2007 17.696C10.2007 12.2308 10.2007 6.76559 10.2007 1.29669C10.2007 0.984601 10.2565 0.691093 10.4758 0.445884C10.7311 0.159806 11.0501 4.89744e-05 11.4608 0.00376427C12.8845 0.00747956 14.3041 0.0223407 15.7278 4.89745e-05C16.3937 -0.0110969 17.0079 0.523905 17.0039 1.18894C16.9959 2.42242 17.0039 3.65218 17.0039 4.88566C16.9999 6.4275 16.9999 7.96935 16.9999 9.51119Z" fill="#373737"/>
</g>
<defs>
<clipPath id="clip0">
<rect width="17" height="19" fill="white"/>
</clipPath>
</defs>
</svg>
