<svg width="19" height="19" viewBox="0 0 19 19" fill="none" xmlns="http://www.w3.org/2000/svg">
<g clip-path="url(#clip0)">
<path d="M2.80538 2.28602C2.28815 1.74688 1.77816 1.21889 1.25731 0.676036C2.93197 0.676036 4.58855 0.676036 6.25598 0.676036C6.25598 2.38269 6.25598 4.07819 6.25598 5.81831C5.72428 5.27545 5.20705 4.74375 4.68259 4.20833C4.34259 4.53925 4.06409 4.89619 3.8109 5.27917C2.96091 6.58426 2.57027 8.02692 2.64985 9.59228C2.72942 11.1948 3.28282 12.6189 4.30281 13.8347C5.1962 14.8981 6.29938 15.6306 7.61958 16.0025C9.59807 16.5602 11.4753 16.2925 13.197 15.1584C14.8861 14.0467 15.9133 12.4516 16.2461 10.4103C16.5608 8.49541 16.1629 6.72927 15.0814 5.13416C14.4738 4.23807 13.6853 3.54277 12.7485 3.03337C12.6038 2.95529 12.5531 2.86606 12.5531 2.69502C12.564 1.85471 12.5568 1.01811 12.5568 0.177797C12.5568 0.118306 12.5568 0.0588149 12.5568 -0.00439453C15.4865 0.932592 18.5284 3.91831 18.9443 8.20911C19.4001 12.9238 16.6873 16.8093 13.0053 18.2966C8.8602 19.9735 4.33174 18.5308 1.80347 14.9651C0.429022 13.0242 -0.160546 10.8342 0.0239196 8.43592C0.219237 6.04512 1.16327 4.00011 2.80538 2.28602Z" fill="#373737"/>
</g>
<defs>
<clipPath id="clip0">
<rect width="19" height="19" fill="white"/>
</clipPath>
</defs>
</svg>
